# File produced by Open Asset Import Library (http://www.assimp.sf.net)
# (assimp v3.1.187496374)

mtllib humanwizard-hat.obj.mtl

# 58 vertex positions
v  5.57185 0.527216 0
v  3.9399 4.5788 0
v  4.33275 4.86114 0.798538
v  6.12743 0.528398 0.798538
v  0 6.21076 3.36413e-09
v  0 6.65583 0.798538
v  0 -5.04464 0
v  3.9399 -3.41268 0
v  4.33274 -3.80435 0.798538
v  0 -5.59903 0.798538
v  1.87226 2.40065 1.70844
v  2.64777 0.528398 1.70844
v  0 3.44286 1.70844
v  1.87226 -1.34386 1.70844
v  0 -2.11937 1.70844
v  1.39864 2.35393 3.50653
v  1.97798 1.24719 3.53969
v  0 2.92446 3.60713
v  1.39864 -0.103789 3.90169
v  0 -0.663386 4.05163
v  1.15726 2.93961 4.90073
v  0 3.24468 4.17617
v  1.0106 2.31235 5.83217
v  0 2.04872 6.30043
v  0 4.82751 5.70062
v  0.696276 4.14835 6.88558
v  0 4.00405 7.28206
v  0.797325 4.39866 6.19786
v  0 5.54849 7.2574
v  0.359078 5.03964 7.4426
v  0 4.57718 7.57217
v  0 5.44011 8.77286
v  3.11219 -0.0318306 0.0831446
v  3.00972 3.08754 0.0831446
v  2.20065 -1.31528 0.0831446
v  0 -2.5557 0.0831446
v  0 4.56991 0.0831446
v  0 0.468079 2.44537
v  -3.9399 4.5788 0
v  -5.57185 0.527216 0
v  -4.33275 4.86114 0.798538
v  -6.12743 0.528398 0.798538
v  -3.9399 -3.41268 0
v  -4.33274 -3.80435 0.798538
v  -1.87226 2.40065 1.70844
v  -2.64777 0.528398 1.70844
v  -1.87226 -1.34386 1.70844
v  -1.39864 2.35393 3.50653
v  -1.97798 1.24719 3.53969
v  -1.39864 -0.103789 3.90169
v  -1.15726 2.93961 4.90073
v  -1.0106 2.31235 5.83217
v  -0.696276 4.14835 6.88558
v  -0.797325 4.39866 6.19786
v  -0.359078 5.03964 7.4426
v  -3.11219 -0.0318306 0.0831446
v  -3.00972 3.08754 0.0831446
v  -2.20065 -1.31528 0.0831446

# 0 UV coordinates

# 110 vertex normals
vn 0.799443 0.322012 -0.507148
vn 0.776976 0.321834 -0.541047
vn 0.340227 0.821381 -0.457797
vn 0.340227 0.821381 -0.457797
vn 0.322117 -0.777659 -0.539896
vn 0.322117 -0.777659 -0.539895
vn 0.777376 -0.322 -0.540373
vn 0.777376 -0.322 -0.540372
vn 0.251608 0.104219 0.962202
vn 0.251608 0.104219 0.962202
vn 0.112153 0.270762 0.956091
vn 0.104219 -0.251608 0.962202
vn 0.104219 -0.251608 0.962202
vn 0.251608 -0.104219 0.962202
vn 0.895597 0.370968 0.245539
vn 0.875676 0.462543 0.138728
vn 0.473103 0.849898 0.232047
vn 0.327424 -0.790471 0.517639
vn 0.368519 -0.789602 0.490634
vn 0.830249 -0.343901 0.438655
vn 0.890072 -0.286744 0.354329
vn 0.885718 0.462417 -0.0409077
vn 0.304969 0.829972 -0.467054
vn 0.307593 -0.563312 0.766854
vn 0.463575 -0.565563 0.682083
vn 0.752378 -0.150821 0.641233
vn 0.985169 0.0222873 0.170133
vn 0.535349 0.585919 -0.608358
vn 0.468572 -0.377925 0.798507
vn 0.515683 -0.384406 0.765704
vn 0.978033 0.0652801 0.197962
vn 0.982885 0.0706537 0.170134
vn 0.60007 0.725881 -0.336173
vn 0.59726 -0.250263 0.762003
vn 0.515535 -0.386971 0.764511
vn 0.949907 0.221715 0.220271
vn 0.809081 0.586199 0.0419224
vn 0.782422 -0.505696 0.363439
vn -0.0309509 -0.0124668 -0.999443
vn -0.0846091 -0.00277936 -0.99641
vn -0.0318614 0.0131974 -0.999405
vn -0.0402611 0.0285945 -0.99878
vn -0.0138281 0.0333839 -0.999347
vn -0.0152199 0.0270017 -0.99952
vn -0.0249176 -0.0505911 -0.998409
vn -0.606498 -0.0199231 -0.794835
vn -0.522792 0.371301 -0.767348
vn -0.327829 0.581605 -0.744489
vn 0.127609 0.229241 0.964969
vn 0.38243 0.915555 0.124523
vn 0.410467 0.86391 -0.291849
vn 0.630502 0.596775 -0.496314
vn 0.81836 0.574653 -0.00778939
vn -0.0183315 -0.0442562 -0.998852
vn -0.238693 -0.484628 -0.841523
vn -0.799443 0.322012 -0.507148
vn -0.776976 0.321834 -0.541047
vn -0.340227 0.821381 -0.457797
vn -0.340227 0.821381 -0.457797
vn -0.322117 -0.777659 -0.539896
vn -0.322117 -0.777659 -0.539895
vn -0.777376 -0.322 -0.540373
vn -0.777376 -0.322 -0.540373
vn -0.251608 0.104219 0.962202
vn -0.251608 0.104219 0.962202
vn -0.112153 0.270762 0.956091
vn -0.104219 -0.251608 0.962202
vn -0.104219 -0.251608 0.962202
vn -0.251608 -0.104219 0.962202
vn -0.895597 0.370968 0.245539
vn -0.875676 0.462543 0.138728
vn -0.473103 0.849898 0.232047
vn -0.327424 -0.790471 0.517639
vn -0.368519 -0.789602 0.490634
vn -0.830249 -0.343901 0.438655
vn -0.890072 -0.286744 0.354329
vn -0.885718 0.462417 -0.0409077
vn -0.304969 0.829972 -0.467054
vn -0.307593 -0.563312 0.766854
vn -0.463575 -0.565563 0.682083
vn -0.752378 -0.150821 0.641233
vn -0.985169 0.0222873 0.170133
vn -0.535349 0.585919 -0.608358
vn -0.468572 -0.377925 0.798507
vn -0.515683 -0.384406 0.765704
vn -0.978033 0.0652801 0.197962
vn -0.982885 0.0706537 0.170134
vn -0.60007 0.725881 -0.336173
vn -0.59726 -0.250263 0.762003
vn -0.515535 -0.386971 0.764511
vn -0.949907 0.221715 0.220271
vn -0.809081 0.586199 0.0419224
vn -0.782422 -0.505696 0.363439
vn 0.0309509 -0.0124668 -0.999443
vn 0.0846091 -0.00277936 -0.99641
vn 0.0318614 0.0131974 -0.999405
vn 0.0402611 0.0285945 -0.99878
vn 0.0138281 0.0333839 -0.999347
vn 0.0152199 0.0270017 -0.99952
vn 0.0249176 -0.0505911 -0.998409
vn 0.606498 -0.0199231 -0.794835
vn 0.522792 0.371301 -0.767348
vn 0.327829 0.581605 -0.744489
vn -0.127609 0.229241 0.964969
vn -0.38243 0.915555 0.124523
vn -0.410467 0.86391 -0.291849
vn -0.630502 0.596775 -0.496314
vn -0.81836 0.574653 -0.00778939
vn 0.0183315 -0.0442562 -0.998852
vn 0.238693 -0.484628 -0.841523

# Mesh '<STL_BINARY>' with 112 faces
g <STL_BINARY>
usemtl DefaultMaterial
f  1//1 2//1 3//1
f  3//2 4//2 1//2
f  2//3 5//3 6//3
f  6//3 3//4 2//3
f  7//5 8//5 9//5
f  9//5 10//6 7//5
f  8//7 1//7 4//7
f  4//7 9//8 8//7
f  4//9 3//9 11//9
f  11//9 12//10 4//9
f  3//11 6//11 13//11
f  10//12 9//12 14//12
f  14//12 15//13 10//12
f  9//14 4//14 12//14
f  12//14 14//14 9//14
f  12//15 11//15 16//15
f  16//16 17//16 12//16
f  11//17 13//17 18//17
f  15//18 14//18 19//18
f  19//19 20//19 15//19
f  14//20 12//20 17//20
f  17//21 19//21 14//21
f  17//22 16//22 21//22
f  16//23 18//23 22//23
f  20//24 19//24 23//24
f  23//25 24//25 20//25
f  19//26 17//26 21//26
f  21//27 23//27 19//27
f  21//28 22//28 25//28
f  24//29 23//29 26//29
f  26//30 27//30 24//30
f  23//31 21//31 28//31
f  28//32 26//32 23//32
f  28//33 25//33 29//33
f  26//34 30//34 31//34
f  31//35 27//35 26//35
f  26//36 28//36 30//36
f  29//37 32//37 30//37
f  30//38 32//38 31//38
f  2//39 1//39 33//39
f  33//40 34//40 2//40
f  1//41 8//41 35//41
f  35//42 33//42 1//42
f  8//43 7//43 36//43
f  36//44 35//44 8//44
f  34//45 37//45 5//45
f  34//46 33//46 38//46
f  33//47 35//47 38//47
f  35//48 36//48 38//48
f  13//49 11//49 3//49
f  18//50 16//50 11//50
f  22//51 21//51 16//51
f  25//52 28//52 21//52
f  29//53 30//53 28//53
f  5//54 2//54 34//54
f  37//55 34//55 38//55
f  39//56 40//56 41//56
f  42//57 41//57 40//57
f  5//58 39//58 6//58
f  41//59 6//58 39//58
f  43//60 7//60 44//60
f  10//61 44//60 7//60
f  40//62 43//62 42//62
f  44//63 42//62 43//62
f  41//64 42//64 45//64
f  46//65 45//64 42//64
f  6//66 41//66 13//66
f  44//67 10//67 47//67
f  15//68 47//67 10//67
f  42//69 44//69 46//69
f  47//69 46//69 44//69
f  45//70 46//70 48//70
f  49//71 48//71 46//71
f  13//72 45//72 18//72
f  47//73 15//73 50//73
f  20//74 50//74 15//74
f  46//75 47//75 49//75
f  50//76 49//76 47//76
f  48//77 49//77 51//77
f  18//78 48//78 22//78
f  50//79 20//79 52//79
f  24//80 52//80 20//80
f  49//81 50//81 51//81
f  52//82 51//82 50//82
f  22//83 51//83 25//83
f  52//84 24//84 53//84
f  27//85 53//85 24//85
f  51//86 52//86 54//86
f  53//87 54//87 52//87
f  25//88 54//88 29//88
f  55//89 53//89 31//89
f  27//90 31//90 53//90
f  54//91 53//91 55//91
f  32//92 29//92 55//92
f  32//93 55//93 31//93
f  40//94 39//94 56//94
f  57//95 56//95 39//95
f  43//96 40//96 58//96
f  56//97 58//97 40//97
f  7//98 43//98 36//98
f  58//99 36//99 43//99
f  37//100 57//100 5//100
f  56//101 57//101 38//101
f  58//102 56//102 38//102
f  36//103 58//103 38//103
f  45//104 13//104 41//104
f  48//105 18//105 45//105
f  51//106 22//106 48//106
f  54//107 25//107 51//107
f  55//108 29//108 54//108
f  39//109 5//109 57//109
f  57//110 37//110 38//110

